<svg width="500" height="500" viewBox="0 0 500 500" fill="none" xmlns="http://www.w3.org/2000/svg">
<path d="M86.2854 447.603C-4.13159 395.4 -4.13159 310.763 86.2854 258.561C176.702 206.359 323.298 206.359 413.716 258.561C504.134 310.763 504.134 395.4 413.716 447.603C323.298 499.806 176.702 499.806 86.2854 447.603Z" fill="#F5F5F5"/>
<path d="M158.643 450.119C197.876 450.119 229.679 431.757 229.679 409.106C229.679 386.455 197.876 368.093 158.643 368.093C119.411 368.093 87.6074 386.455 87.6074 409.106C87.6074 431.757 119.411 450.119 158.643 450.119Z" fill="#E0E0E0"/>
<path d="M322.846 389.961C372.11 363.393 401.328 321.983 388.108 297.468C374.887 272.954 324.233 274.62 274.97 301.188C225.706 327.756 196.488 369.167 209.709 393.681C222.929 418.195 273.583 416.53 322.846 389.961Z" fill="#E0E0E0"/>
<path d="M371.852 331.713C381.704 319.97 397.134 312.318 414.485 307.804C431.615 303.347 434.687 292.807 423.331 289.387C410.458 285.51 394.397 292.635 384.04 302.544C365.99 319.813 363.728 333.031 363.728 333.031L371.852 331.713Z" fill="#FF2149"/>
<path opacity="0.15" d="M371.852 331.713C381.704 319.97 397.134 312.318 414.485 307.804C431.615 303.347 434.687 292.807 423.331 289.387C410.458 285.51 394.397 292.635 384.04 302.544C365.99 319.813 363.728 333.031 363.728 333.031L371.852 331.713Z" fill="black"/>
<path d="M366.779 331.027C366.705 331.027 366.631 331.01 366.56 330.976C366.311 330.855 366.208 330.556 366.33 330.308C380.95 300.31 413.304 292.93 421.169 293.486C421.444 293.506 421.65 293.747 421.631 294.022C421.61 294.297 421.356 294.503 421.095 294.484C413.415 293.895 381.624 301.211 367.229 330.746C367.142 330.924 366.963 331.027 366.779 331.027Z" fill="white"/>
<path d="M363.727 334.834C363.727 336.955 366.025 338.241 367.858 337.173C377.017 331.839 390.38 328.894 412.003 335.046C423.499 338.317 429.158 336.129 431.583 331.447C434.276 326.247 428.57 321.222 422.077 318.85C399.948 310.764 379.975 316.285 363.726 332.417L363.727 334.834Z" fill="#FF2149"/>
<path d="M364.985 335.263C364.847 335.263 364.711 335.206 364.612 335.096C364.428 334.89 364.446 334.575 364.652 334.39C383.757 317.313 413.36 320.637 424.563 327.298C424.8 327.439 424.878 327.746 424.737 327.984C424.595 328.221 424.289 328.298 424.051 328.158C413.075 321.633 384.06 318.384 365.318 335.136C365.223 335.221 365.104 335.263 364.985 335.263Z" fill="white"/>
<path d="M149.917 374.655C141.519 361.832 127.1 352.412 110.402 345.883C93.9165 339.436 92.1105 328.607 103.791 326.551C117.031 324.219 132.14 333.19 141.255 344.251C157.141 363.529 157.828 376.922 157.828 376.922L149.917 374.655Z" fill="#FF2149"/>
<path opacity="0.15" d="M149.917 374.655C141.519 361.832 127.1 352.412 110.402 345.883C93.9165 339.436 92.1105 328.607 103.791 326.551C117.031 324.219 132.14 333.19 141.255 344.251C157.141 363.529 157.828 376.922 157.828 376.922L149.917 374.655Z" fill="black"/>
<path d="M155.034 374.572C155.108 374.581 155.183 374.573 155.257 374.547C155.519 374.456 155.656 374.172 155.565 373.911C144.586 342.398 113.329 331.252 105.453 330.876C105.177 330.864 104.944 331.078 104.931 331.354C104.919 331.63 105.148 331.864 105.409 331.876C113.105 332.197 143.811 343.212 154.621 374.24C154.686 374.427 154.851 374.551 155.034 374.572Z" fill="white"/>
<path d="M157.902 376.312C157.534 379.404 154.036 381.009 151.449 379.275C142.973 373.596 130.342 369.912 109.653 373.228C97.8507 375.12 92.4897 372.28 90.6337 367.344C88.5727 361.862 94.8317 357.546 101.559 355.956C124.488 350.537 143.67 358.375 157.902 376.312Z" fill="#FF2149"/>
<path d="M156.316 378.99C156.453 379.006 156.595 378.966 156.706 378.868C156.913 378.685 156.932 378.37 156.749 378.162C139.792 358.95 110.004 358.759 98.093 364.052C97.841 364.164 97.727 364.46 97.839 364.712C97.952 364.964 98.247 365.077 98.499 364.966C110.168 359.781 139.364 359.978 155.999 378.825C156.085 378.92 156.198 378.976 156.316 378.99Z" fill="white"/>
<path d="M380.823 146.171L380.826 146.164L380.668 146.083C380.662 146.08 380.657 146.077 380.651 146.074L342.532 124.13C342.52 124.124 342.508 124.118 342.496 124.111L342.273 123.997L342.269 124.007C324.462 115.024 300.7 117.718 275.144 134.243C223.801 167.443 184.677 243.861 187.758 304.926C189.294 335.364 201.029 356.235 218.769 365.41L218.765 365.417L218.922 365.497C218.929 365.501 218.935 365.504 218.942 365.507L257.069 387.456C257.075 387.458 257.08 387.461 257.086 387.464L257.273 387.56L257.277 387.552C275.089 396.563 298.87 393.877 324.448 377.337C375.79 344.136 414.915 267.72 411.834 206.655C410.298 176.217 398.562 155.345 380.823 146.171Z" fill="#37474F"/>
<path d="M255.772 386.761L218.954 365.503C218.926 365.505 218.926 365.505 218.926 365.505L218.755 365.402C201.025 356.204 189.295 335.332 187.762 304.937C186.387 277.704 193.424 247.433 206.157 219.32L206.414 218.704L244.29 241.261C231.529 269.375 224.52 299.645 225.894 326.879C227.396 356.663 238.667 377.28 255.772 386.761Z" fill="#263238"/>
<path d="M324.449 377.336C375.791 344.135 414.915 267.719 411.834 206.654C408.753 145.59 364.634 123.001 313.291 156.202C261.948 189.402 222.824 265.819 225.905 326.884C228.987 387.949 273.106 410.536 324.449 377.336Z" fill="#455A64"/>
<path d="M367.928 141.434L303.581 273.974L289.73 258.963C285.457 254.321 279.367 251.659 273.022 251.659C267.28 251.659 261.79 253.799 257.559 257.689C248.35 266.198 247.776 280.627 256.281 289.853L292.767 329.377C296.806 333.752 302.308 336.338 308.259 336.66C308.679 336.682 309.099 336.694 309.521 336.694C310.609 336.694 311.712 336.615 312.819 336.458C320.284 335.349 326.696 330.645 329.968 323.88L403.768 171.871C396.234 155.018 383.627 144.537 367.928 141.434Z" fill="#37474F"/>
<path d="M420.187 97.7719C419.785 97.5409 419.373 97.3219 418.95 97.1169C409.125 92.3669 397.272 96.4639 392.53 106.259L310.645 274.92L305.993 269.879C304.608 268.375 303.039 267.139 301.351 266.172C298.908 264.772 288.529 258.761 286.85 257.792C279.573 253.592 270.077 254.383 263.542 260.392C255.547 267.779 255.049 280.307 262.432 288.317L298.918 327.842C300.306 329.346 301.895 330.602 303.629 331.589C306.011 332.944 316.354 338.94 318.046 339.922C320.714 341.47 323.729 342.378 326.891 342.549C328.195 342.619 329.504 342.566 330.848 342.375C337.327 341.412 342.9 337.326 345.74 331.455L442.612 131.924C447.161 122.534 443.612 111.286 434.724 106.166C434.318 105.931 422.774 99.2609 420.187 97.7719Z" fill="#FF2149"/>
<path opacity="0.15" d="M420.187 97.7719C419.785 97.5409 419.373 97.3219 418.95 97.1169C409.125 92.3669 397.272 96.4639 392.53 106.259L310.645 274.92L305.993 269.879C304.608 268.375 303.039 267.139 301.351 266.172C298.908 264.772 288.529 258.761 286.85 257.792C279.573 253.592 270.077 254.383 263.542 260.392C255.547 267.779 255.049 280.307 262.432 288.317L298.918 327.842C300.306 329.346 301.895 330.602 303.629 331.589C306.011 332.944 316.354 338.94 318.046 339.922C320.714 341.47 323.729 342.378 326.891 342.549C328.195 342.619 329.504 342.566 330.848 342.375C337.327 341.412 342.9 337.326 345.74 331.455L442.612 131.924C447.161 122.534 443.612 111.286 434.724 106.166C434.318 105.931 422.774 99.2609 420.187 97.7719Z" fill="black"/>
<path opacity="0.15" d="M318.042 339.92C316.356 338.942 306.01 332.945 303.626 331.585C301.894 330.598 300.301 329.341 298.914 327.841L262.428 288.319C260.771 286.512 259.523 284.464 258.657 282.312L273.166 290.684C274.023 292.844 275.289 294.893 276.956 296.7L313.442 336.222C314.801 337.694 316.347 338.933 318.042 339.92Z" fill="black"/>
<path opacity="0.15" d="M411.632 108.561C409.77 110.219 408.205 112.267 407.05 114.642L322.829 288.124L310.648 274.919L392.533 106.261C393.678 103.877 395.261 101.838 397.124 100.18L411.632 108.561Z" fill="black"/>
<path d="M433.473 105.503C423.648 100.753 411.795 104.85 407.053 114.644L322.829 288.124L305.994 269.879C298.638 261.889 286.109 261.381 278.066 268.777C270.071 276.164 269.573 288.692 276.956 296.702L313.442 336.227C316.947 340.023 321.724 342.269 326.892 342.549C328.196 342.619 329.505 342.566 330.849 342.375C337.328 341.412 342.901 337.326 345.741 331.455L442.614 131.924C447.368 122.105 443.271 110.254 433.473 105.503Z" fill="#FF2149"/>
<path d="M157.228 124.987C149.601 124.987 144.377 126.973 138.959 134.69C133.99 141.768 120.319 165.367 120.319 165.367C120.319 165.367 110.35 144.853 109.314 140.76C108.278 136.668 108.37 134.851 109.355 133.074C110.568 130.885 111.65 128.967 111.88 126.038C112.266 121.125 113.473 116.915 112.369 116.775C109.315 116.6 109.2 120.516 107.597 122.833C107.025 123.659 105.155 123.78 104.524 122.496C103.85 121.126 104.213 118.879 103.886 117.259C104.032 115.858 104.159 115.405 104.318 114.584C105.178 114.784 106.429 114.808 107.818 114.682C109.136 116.754 110.041 117.625 111.88 116.784C112.123 116.396 111.09 113.74 109.894 111.825C109.705 111.522 109.417 111.292 109.073 111.197C107.225 110.687 105.13 110.562 102.291 111.011C101.956 111.064 101.611 111.213 101.422 111.494C100.363 113.064 99.7293 114.654 99.4713 115.462C99.3353 115.888 98.9413 115.877 98.8423 115.508C97.8673 110.679 97.8533 103.822 97.8533 100.606C97.8533 98.08 94.1563 97.683 94.0273 101.302C93.8953 105.009 93.7993 111.871 94.2773 115.875C94.3343 116.311 93.8413 116.52 93.6623 116.042C93.0183 114.326 91.4493 109.16 90.7913 100.241C90.6143 97.845 86.7343 97.449 86.7633 100.821C86.8423 110.061 88.9843 118.58 88.9843 118.58C89.0973 119.003 88.7143 119.373 88.4213 118.894C87.1313 116.784 85.1023 111.543 84.0753 107.937C83.2523 105.044 79.3843 105.778 80.0603 109.386C81.2733 115.857 83.1943 124.045 86.0553 129.89C89.1153 136.142 91.7633 139.269 93.2793 144.18C94.7953 149.092 101.091 176.903 107.819 187.743C113.09 196.236 119.121 195.455 125.607 190.975C132.093 186.495 155.285 154.181 155.285 154.181L157.228 124.987Z" fill="#D68C75"/>
<path d="M120.319 165.366C120.319 165.366 123.572 170.882 124.066 175.287C124.066 175.287 125.637 168.979 121.773 162.867L120.319 165.366Z" fill="#D26F59"/>
<path d="M158.849 125.012C154.969 124.613 150.146 124.479 144.757 127.866C139.368 131.253 137.499 135.982 134.891 140.109C132.283 144.237 123.258 158.871 123.258 158.871C123.258 158.871 126.567 172.762 139.733 175.624L159.443 148.88L158.849 125.012Z" fill="#455A64"/>
<path d="M176.525 369.227C177.487 369.105 178.849 372.51 178.869 373.622C178.888 374.734 177.774 377.123 176.298 379.361C174.823 381.599 172.779 384.37 171.453 387.987C170.323 391.068 169.28 393.089 166.134 397.122C162.629 401.615 154.415 409.129 141.93 405.857C138.883 405.059 137.359 404.098 136.256 402.99C135.325 402.055 134.883 400.538 135.383 399.171L176.525 369.227Z" fill="#263238"/>
<path d="M152.006 365.332C151.996 365.367 151.987 365.403 151.979 365.438C151.763 366.356 151.946 367.313 152.062 368.249C152.47 371.531 152.033 374.915 150.803 377.986C149.976 380.05 148.793 381.969 147.329 383.641C145.838 385.343 143.398 387.143 141.495 388.358C135.17 392.395 134.491 395.092 135.382 399.17C137.497 403.92 151.833 406.811 160.074 399.735C163.294 396.97 165.738 394.542 167.918 389.069C169.451 385.221 170.598 383.042 172.075 380.27C173.672 377.274 176.694 373.888 176.782 370.797C176.83 369.099 175.149 365.94 173.515 363.337C172.016 360.949 170.472 358.678 169.123 358.944L169.495 360.294C168.372 361.462 166.74 361.897 165.755 363.268C164.54 364.959 164.584 367.231 163.828 369.171C163.755 369.358 163.653 369.562 163.461 369.62C163.257 369.682 163.035 369.54 162.935 369.352C162.835 369.164 162.826 368.942 162.819 368.728C162.79 367.758 162.76 366.788 162.731 365.818C162.714 365.263 162.679 364.658 162.31 364.242C161.53 363.36 159.606 363.464 158.538 363.42C157.073 363.36 155.68 363.588 154.23 363.679C153.691 363.713 153.287 363.68 152.828 364.049C152.43 364.371 152.144 364.839 152.006 365.332Z" fill="#37474F"/>
<path d="M130.819 307.194C134.151 318.142 149.718 356.048 150.653 358.329C151.589 360.61 153.75 365.853 153.75 365.853C153.75 365.853 156.293 366.9 160.073 366.116C160.4 369.747 160.948 375.44 161.164 378.312C161.236 381.642 161.526 385.755 160.81 389.046C160.199 391.85 159.493 394.788 158.964 397.597C158.73 398.841 158.496 400.085 158.309 401.337C158.11 402.66 157.982 404.09 158.622 405.265C158.922 405.816 159.373 406.27 159.857 406.668C162.014 408.443 164.917 409.197 167.702 408.971C169.175 408.851 170.658 408.455 171.859 407.594C174.278 405.86 175.13 402.85 176.361 400.291C177.698 397.515 177.264 397.211 177.378 394.238C177.458 392.159 178.034 386.877 178.866 381.359C179.698 375.841 183.279 356.44 184.997 337.107C186.186 323.723 184.996 311.309 184.996 311.309C198.657 274.196 204.739 252.133 206.525 239.806C208.339 227.285 207.47 222.83 207.24 215.623L140.812 217.222C135.472 251.557 126.349 292.509 130.819 307.194Z" fill="#D68C75"/>
<path d="M129.783 279.788C131.151 267.168 140.59 218.657 140.59 218.657H207.515C207.515 218.657 207.938 227.97 207.817 232.246C207.696 236.522 206.323 244.345 203.926 254.228C201.53 264.111 192.681 292.114 190.971 296.248C189.26 300.382 185.947 312.319 185.947 312.319C187.589 334.763 183.321 354.902 180.12 381.668C180.12 381.668 179.194 385.283 169.709 384.567C160.492 383.871 158.632 380.474 158.632 380.474L158.015 357.378C158.015 357.378 152.975 358.924 150.016 358.216C150.016 358.216 130.207 309.314 129.249 306.368C128.294 303.42 128.414 292.407 129.783 279.788Z" fill="#FF2149"/>
<path opacity="0.45" d="M129.783 279.788C131.151 267.168 140.59 218.657 140.59 218.657H207.515C207.515 218.657 207.938 227.97 207.817 232.246C207.696 236.522 206.323 244.345 203.926 254.228C201.53 264.111 192.681 292.114 190.971 296.248C189.26 300.382 185.947 312.319 185.947 312.319C187.589 334.763 183.321 354.902 180.12 381.668C180.12 381.668 179.194 385.283 169.709 384.567C160.492 383.871 158.632 380.474 158.632 380.474L158.015 357.378C158.015 357.378 152.975 358.924 150.016 358.216C150.016 358.216 130.207 309.314 129.249 306.368C128.294 303.42 128.414 292.407 129.783 279.788Z" fill="black"/>
<path opacity="0.2" d="M158.167 250.281C148.691 241.736 146.584 234.938 146.584 234.938C153.647 243.274 163.271 248.31 163.271 248.31C163.271 248.31 154.273 295.831 154.928 305.602C155.582 315.373 158.018 357.378 158.018 357.378C158.036 357.782 151.638 312.954 151.456 309.371C150.977 299.934 158.167 250.281 158.167 250.281Z" fill="black"/>
<path d="M179.026 405.464C179.959 405.73 179.842 408.514 179.421 409.546C179 410.577 177.338 412.55 175.097 414.029C172.856 415.508 170.771 417.579 168.751 420.865C167.315 423.2 163.695 427.643 158.8 430.577C153.906 433.511 146.672 434.537 141.298 433.01C135.02 431.227 134.435 429.689 134.494 427.32L179.026 405.464Z" fill="#263238"/>
<path d="M159.601 390.923C157.955 398.961 155.084 404.796 148.427 409.743C143.134 413.676 139.288 415.675 135.065 419.191C133.266 420.689 133.115 423.881 134.494 427.321C137.348 429.614 141.408 430.925 146.862 430.917C152.957 430.908 155.302 429.833 158.8 427.438C160.814 426.059 162.207 424.8 163.577 423.425C166.505 420.487 168.546 416.86 170.66 414.531C172.774 412.201 177.345 409.823 178.645 407.011C179.359 405.466 179.056 401.895 178.578 398.856C178.139 396.067 178.994 391.168 177.648 390.882C177.677 390.888 177.465 392.878 177.465 392.878C177.355 393.331 177.073 393.56 176.13 393.886C175.5 394.104 174.213 394.072 173.556 393.963C172.787 393.835 172.347 393.847 171.835 394.45C170.932 395.514 170.692 397.01 169.535 397.889C169.454 397.951 169.367 398.009 169.267 398.031C169.168 398.053 169.053 398.03 168.988 397.952C168.916 397.864 168.925 397.737 168.937 397.624C169.048 396.628 169.16 395.631 169.271 394.634C169.305 394.333 169.338 394.028 169.296 393.728C169.217 393.172 168.796 392.697 168.33 392.414C167.515 391.918 166.56 391.554 165.643 391.298C164.67 391.026 163.668 390.881 162.663 390.79C161.653 390.697 160.599 390.677 159.601 390.923Z" fill="#455A64"/>
<path d="M201.467 127.866C201.467 127.866 204.224 131.653 206.431 139.443C206.431 139.443 210.633 157.254 210.633 178.362C210.633 196.026 208.249 224.659 208.249 224.659C187.743 234.938 154.662 228.859 140.104 218.835C140.693 215.652 141.193 198.934 142.337 187.905C143.113 168.982 143.751 159.067 143.885 150.65C144.152 133.829 152.524 125.142 158.848 125.013L174.907 125.264L201.467 127.866Z" fill="#FF2149"/>
<path d="M206.528 219.465C203.48 221.975 197.492 226.798 196.397 229.227C195.143 232.009 194.363 236.196 193.548 237.813C192.733 239.43 193.983 240.185 195.74 239.621C197.496 239.057 198.555 237.555 199.911 233.917C201.267 230.279 205.049 227.431 205.049 227.431L206.528 219.465Z" fill="#D26F59"/>
<path d="M195.393 252.203C196.12 253.61 197.826 253.616 199.405 253.744C201.652 253.926 202.921 253.768 205.074 253.099C207.227 252.43 209.235 251.155 210.525 249.305C212.066 247.094 212.458 244.31 213.337 241.762C215.184 236.407 220.665 232.553 221.558 226.882C221.927 224.537 221.93 221.781 222.595 220.326C222.986 219.47 231.995 203.958 235.208 197.239C238.296 190.781 240.605 187.742 237.806 179.977C235.007 172.212 225.471 144.906 218.726 135.418C214.9 130.035 208.828 128.502 201.468 127.864C195.869 142.453 202.386 157.518 202.386 157.518L217.198 186.095C217.198 186.095 211.44 205.774 207.84 216.718C206.84 219.758 204.819 221.636 202.548 225.006C201.562 226.469 199.293 229.031 198.487 230.601C197.449 232.622 197.476 233.917 196.989 236.747C196.213 241.26 195.046 251.532 195.393 252.203Z" fill="#D68C75"/>
<path d="M200.678 127.788C204.546 127.943 210.106 128.597 213.432 130.276C216.758 131.955 219.057 134.03 222.885 141.687C226.712 149.345 232.286 164.226 232.286 164.226C232.286 164.226 230.436 175.454 212.68 178.368L200.678 156.24C200.678 156.24 195.33 142.454 200.678 127.788Z" fill="#455A64"/>
<path d="M154.545 92.046C155.124 92.89 155.446 94.043 155.903 94.965C156.546 96.263 157.19 97.578 158.147 98.68C160.448 101.331 163.685 103.274 166.627 105.15C168.414 106.29 170.453 107.362 172.636 107.049C174.852 106.731 177.248 107.212 179.505 107.414C182.128 107.649 184.75 107.884 187.373 108.119L186.929 116.393C186.929 116.393 187.904 114.199 189.237 111.583C190.383 109.334 195.161 97.917 195.179 97.874C197.547 92.217 200.361 84.68 197.526 78.737C196.857 77.335 195.866 76.028 194.449 75.209C194.734 74.118 194.824 73.359 194.709 72.392C194.328 69.194 192.701 67.365 190.531 65.768C188.361 64.171 185.735 63.315 183.109 62.711C179.591 61.902 175.979 61.502 172.37 61.516C168.779 61.53 165.358 62.132 161.834 62.726C159.893 63.053 157.934 63.317 155.963 63.339C155.136 63.348 154.218 63.403 153.421 63.218C152.388 62.978 151.353 62.471 150.355 62.111C150.177 62.047 149.976 61.984 149.807 62.067C149.635 62.151 149.561 62.354 149.511 62.539C148.879 64.852 149.674 67.859 151.145 69.752C150.544 69.676 150.079 69.472 149.844 69.374C149.358 69.171 148.937 68.892 148.493 68.615C147.695 68.117 147.206 67.538 146.595 66.804C146.51 66.702 146.414 66.593 146.283 66.57C146.085 66.535 145.916 66.708 145.797 66.87C144.657 68.427 144.372 70.505 144.757 72.397C145.142 74.288 146.141 76.009 147.359 77.507C146.052 79.449 146.032 82.089 147.005 84.218C147.437 85.163 148.048 86.017 148.772 86.76C149.669 87.68 150.733 88.432 151.677 89.288C152.64 90.163 153.801 90.962 154.545 92.046Z" fill="#37474F"/>
<path d="M178.511 78.268C178.533 80.473 178.844 82.013 179.077 82.692C179.542 84.048 180.319 84.943 181.31 85.98C182.326 87.043 183.586 87.89 184.407 89.11C185.527 90.775 185.912 92.921 186.148 94.869C186.291 96.054 186.655 97.345 187.669 97.973C189.808 99.296 191.09 96.73 192.231 95.471C193.703 94.11 198.066 92.452 200.085 97.089C202.176 101.893 198.322 108.254 194.81 109.232C188.757 110.918 187.443 106.8 187.443 106.8L186.283 128.4C182.865 134.873 174.845 136.927 169.576 135.897C165.027 135.008 162.527 131.821 166.805 127.195L167.036 120.617C167.036 120.617 161.58 121.265 158.944 120.769C154.559 119.944 152.385 116.219 151.203 111.405C149.305 103.674 148.437 95.548 150.784 78.142C151.862 77.548 156.187 80.919 162.736 81.371C169.243 81.821 175.246 80.073 178.511 78.268Z" fill="#D68C75"/>
<path d="M167.037 120.618C167.037 120.618 176.938 118.956 180.437 117.239C182.779 116.09 184.743 114.031 185.344 112.69C185.344 112.69 184.605 115.588 182.463 118.15C179.843 121.284 166.952 123.235 166.952 123.235L167.037 120.618Z" fill="#D26F59"/>
<path d="M172.15 85.96L176.759 87.37C177.118 86.056 176.377 84.675 175.105 84.285C173.832 83.895 172.509 84.645 172.15 85.96Z" fill="#263238"/>
<path d="M170.549 107.839L163.764 110.137C164.365 112.08 166.371 113.14 168.245 112.506C170.119 111.872 171.15 109.782 170.549 107.839Z" fill="#D26F59"/>
<path d="M170.001 109.5C168.127 109.5 166.565 110.795 166.132 112.535C166.799 112.741 167.531 112.748 168.245 112.507C169.561 112.061 170.447 110.893 170.658 109.567C170.443 109.531 170.226 109.5 170.001 109.5Z" fill="#8B3232"/>
<path d="M151.574 86.7341L156.255 86.1171C156.116 84.8441 154.955 83.9501 153.662 84.1201C152.37 84.2901 151.435 85.4601 151.574 86.7341Z" fill="#263238"/>
<path d="M180.402 88.7322L195.867 94.0322C195.867 94.0322 193.444 93.8362 191.411 96.2942L180.457 92.1332L180.402 88.7322Z" fill="#263238"/>
<path d="M153.876 94.7652C153.842 95.8252 154.641 96.7092 155.662 96.7392C156.682 96.7692 157.538 95.9352 157.572 94.8742C157.607 93.8142 156.807 92.9302 155.787 92.8992C154.766 92.8692 153.911 93.7042 153.876 94.7652Z" fill="#263238"/>
<path d="M171.551 94.7742C171.517 95.8342 172.316 96.7182 173.337 96.7482C174.357 96.7782 175.213 95.9442 175.247 94.8832C175.282 93.8232 174.482 92.9382 173.462 92.9082C172.441 92.8792 171.586 93.7142 171.551 94.7742Z" fill="#263238"/>
<path d="M144.754 89.8542C144.822 90.7942 145.422 91.6682 145.73 92.0342C145.892 92.2272 146.042 92.4812 146.122 92.8112C146.483 94.2982 146.791 97.1162 147.496 98.6992C148.204 100.28 149.681 102.788 153.834 102.883C154.642 102.903 155.357 102.837 155.991 102.701C156.046 102.691 156.101 102.677 156.154 102.666C156.825 102.51 157.404 102.272 157.907 101.976C157.942 101.955 157.978 101.933 158.011 101.911C158.063 101.881 158.112 101.85 158.161 101.816C158.205 101.788 158.248 101.757 158.349 101.686C158.409 101.644 158.466 101.601 158.523 101.555C158.589 101.505 158.651 101.454 158.713 101.4C158.775 101.349 158.835 101.296 158.895 101.239C159.014 101.129 159.125 101.015 159.234 100.896C159.848 100.229 160.291 99.4472 160.642 98.6572C161.556 96.5992 161.319 93.7192 162.823 93.3862C162.879 93.3742 162.941 93.3642 163.003 93.3602C163.065 93.3532 163.13 93.3522 163.198 93.3522C165.243 93.3822 165.015 96.5192 166.16 98.7582C167.301 101.001 169.193 103.188 173.629 103.25C173.827 103.254 174.019 103.25 174.203 103.245C174.36 103.238 174.513 103.23 174.66 103.214C175.041 103.187 175.398 103.133 175.728 103.063C175.843 103.037 175.955 103.013 176.064 102.985C176.173 102.957 176.282 102.924 176.385 102.894C176.452 102.876 176.52 102.853 176.588 102.83C177.04 102.673 177.436 102.484 177.789 102.266C177.929 102.178 178.06 102.089 178.192 101.995C178.445 101.808 178.669 101.61 178.886 101.386C179.551 100.694 179.953 99.9292 180.23 99.3052C180.919 97.7502 181.099 94.9332 181.441 93.4662C181.533 93.0762 181.653 92.8052 181.78 92.6172C182.067 92.1922 182.752 91.4542 182.779 90.5132C182.806 89.5722 182.143 88.7522 181.544 88.6652C181.196 88.6152 180.832 88.5662 180.456 88.5202C176.956 88.0962 172.392 87.9092 169.662 88.6502C166.239 89.5862 165.052 90.6832 163.143 90.6562C161.358 90.6142 160.199 89.4762 156.957 88.4172C154.37 87.5762 150.104 87.6012 146.846 87.8992C146.497 87.9312 146.16 87.9662 145.837 88.0052C145.277 88.0682 144.686 88.9142 144.754 89.8542ZM167.272 91.9952C167.453 91.7292 167.793 91.4542 168.246 91.1992C168.302 91.1632 168.36 91.1322 168.422 91.1012C168.454 91.0822 168.486 91.0662 168.519 91.0502C168.671 90.9712 168.832 90.8942 169.002 90.8222C169.143 90.7602 169.293 90.6982 169.448 90.6392C169.897 90.4652 170.394 90.3102 170.909 90.1792C171.1 90.1312 171.294 90.0842 171.491 90.0442C171.986 89.9372 172.49 89.8592 172.995 89.8072C173.116 89.7942 173.234 89.7822 173.346 89.7792C176.642 89.5112 178.699 90.2882 179.447 90.9642C180.222 91.6662 179.872 94.7102 179.558 96.2562C179.55 96.2942 179.542 96.3322 179.534 96.3712C179.526 96.4092 179.518 96.4502 179.51 96.4912C179.472 96.6782 179.427 96.8902 179.369 97.1152C179.336 97.2392 179.3 97.3702 179.262 97.5022C179.259 97.5092 179.259 97.5142 179.256 97.5182C179.196 97.7272 179.123 97.9422 179.036 98.1642V98.1662C179.008 98.2382 178.977 98.3142 178.946 98.3872C178.93 98.4302 178.91 98.4742 178.887 98.5192C178.867 98.5682 178.845 98.6162 178.819 98.6662C178.791 98.7272 178.76 98.7902 178.728 98.8512C178.694 98.9202 178.657 98.9892 178.617 99.0562C178.577 99.1282 178.534 99.2002 178.485 99.2742C178.442 99.3452 178.393 99.4202 178.341 99.4932C177.523 100.676 176.139 101.673 173.734 101.666C171.355 101.661 169.839 100.843 168.868 99.8112L168.865 99.8102C167.903 98.7812 167.475 97.5442 167.27 96.6872C166.864 94.9522 166.629 92.9362 167.272 91.9952ZM147.886 90.3822C148.068 90.2082 148.335 90.0302 148.691 89.8722C148.713 89.8612 148.732 89.8532 148.754 89.8442C148.864 89.7942 148.981 89.7482 149.11 89.7042C149.179 89.6812 149.254 89.6552 149.328 89.6342C149.386 89.6172 149.449 89.5972 149.509 89.5832C149.55 89.5692 149.592 89.5612 149.63 89.5512C149.647 89.5452 149.663 89.5422 149.677 89.5402C149.735 89.5252 149.796 89.5122 149.856 89.4982C150.09 89.4462 150.344 89.4052 150.614 89.3732C150.747 89.3562 150.884 89.3412 151.025 89.3332C151.105 89.3252 151.188 89.3212 151.273 89.3152C151.337 89.3112 151.4 89.3092 151.464 89.3072C151.633 89.3032 151.809 89.2992 151.989 89.3022C152.053 89.3032 152.117 89.3032 152.183 89.3052C152.241 89.3062 152.302 89.3082 152.363 89.3102C152.834 89.3282 153.341 89.3752 153.882 89.4532C156.232 89.7932 158.687 90.8822 159.327 91.8482C159.967 92.8132 159.824 94.8212 159.517 96.5412C159.455 96.8812 159.364 97.2762 159.22 97.6932C159.212 97.7212 159.199 97.7512 159.189 97.7832C159.176 97.8212 159.163 97.8602 159.147 97.9002C159.137 97.9262 159.129 97.9522 159.118 97.9782C159.1 98.0242 159.082 98.0712 159.06 98.1162C159.02 98.2132 158.978 98.3062 158.933 98.4012C158.896 98.4812 158.854 98.5642 158.811 98.6442C158.795 98.6742 158.779 98.7032 158.763 98.7302C158.733 98.7822 158.701 98.8382 158.666 98.8932C158.639 98.9392 158.61 98.9862 158.578 99.0342C158.575 99.0412 158.57 99.0492 158.565 99.0572C157.747 100.31 156.287 101.39 153.671 101.292C152.685 101.26 151.87 101.039 151.205 100.7C148.87 99.5132 148.273 96.8882 147.995 95.6712C147.646 94.1162 147.189 91.0542 147.886 90.3822Z" fill="#263238"/>
<path d="M163.763 93.46L163.413 106.315L156.239 104.244L162.926 93.354C163.236 93.323 163.511 93.368 163.763 93.46Z" fill="#D26F59"/>
<path d="M264.02 95.0949C284.482 95.0949 301.071 80.5657 301.071 62.6429C301.071 44.7202 284.482 30.1909 264.02 30.1909C243.557 30.1909 226.969 44.7202 226.969 62.6429C226.969 80.5657 243.557 95.0949 264.02 95.0949Z" fill="#FF2149"/>
<path d="M234.445 81.406C234.242 85.76 230.562 93.538 223.906 96.368C223.487 96.546 223.536 97.149 223.982 97.242C227.618 97.999 237.324 98.914 244.483 89.477L234.445 81.406Z" fill="#FF2149"/>
<path d="M238.9 60.0679C238.978 58.6109 239.296 57.2389 239.856 55.9519C240.415 54.6639 241.208 53.5459 242.236 52.5969C243.263 51.6479 244.511 50.8939 245.981 50.3339C247.451 49.7739 249.148 49.4949 251.073 49.4949C252.971 49.4949 254.663 49.7739 256.145 50.3339C257.627 50.8939 258.882 51.6479 259.91 52.5969C260.937 53.5459 261.73 54.6639 262.29 55.9519C262.85 57.2389 263.168 58.6109 263.246 60.0679C263.298 61.1859 263.324 62.3569 263.324 63.5789C263.324 64.8029 263.298 65.9459 263.246 67.0129C263.168 68.4699 262.85 69.8419 262.29 71.1289C261.73 72.4169 260.937 73.5419 259.91 74.5039C258.883 75.4669 257.628 76.2209 256.145 76.7679C254.663 77.3139 252.971 77.5869 251.073 77.5869C249.148 77.5869 247.451 77.3139 245.981 76.7679C244.511 76.2209 243.263 75.4669 242.236 74.5039C241.208 73.5419 240.415 72.4169 239.856 71.1289C239.296 69.8419 238.978 68.4699 238.9 67.0129C238.847 65.9469 238.822 64.8029 238.822 63.5789C238.822 62.3569 238.847 61.1859 238.9 60.0679ZM256.028 66.8179C256.053 66.3489 256.08 65.8299 256.106 65.2569C256.131 64.6859 256.145 64.1009 256.145 63.5019C256.145 62.9029 256.131 62.3249 256.106 61.7659C256.08 61.2059 256.053 60.7059 256.028 60.2629C255.975 59.6139 255.839 59.0149 255.619 58.4689C255.397 57.9219 255.085 57.4479 254.682 57.0439C254.278 56.6419 253.778 56.3219 253.179 56.0889C252.58 55.8549 251.878 55.7369 251.073 55.7369C250.266 55.7369 249.564 55.8539 248.967 56.0889C248.368 56.3219 247.867 56.6419 247.464 57.0439C247.061 57.4479 246.749 57.9219 246.528 58.4689C246.306 59.0149 246.17 59.6139 246.118 60.2629C246.065 60.7059 246.033 61.2059 246.02 61.7659C246.006 62.3259 246 62.9039 246 63.5019C246 64.1009 246.006 64.6859 246.02 65.2569C246.033 65.8299 246.065 66.3499 246.118 66.8179C246.222 68.1189 246.671 69.1979 247.464 70.0559C248.258 70.9139 249.46 71.3429 251.073 71.3429C252.685 71.3429 253.883 70.9139 254.663 70.0559C255.443 69.1979 255.897 68.1179 256.028 66.8179Z" fill="#FAFAFA"/>
<path d="M290.948 75.9078C291.026 76.0118 291.065 76.1548 291.065 76.3368C291.065 76.5708 290.98 76.7728 290.811 76.9408C290.641 77.1108 290.44 77.1948 290.207 77.1948H284.003C283.639 77.1948 283.34 77.1168 283.105 76.9608C282.871 76.8048 282.638 76.5838 282.404 76.2978L275.029 67.0118V76.1418C275.029 76.4288 274.925 76.6758 274.716 76.8828C274.508 77.0918 274.261 77.1958 273.975 77.1958H268.865C268.579 77.1958 268.331 77.0918 268.123 76.8828C267.915 76.6758 267.812 76.4288 267.812 76.1418V50.9378C267.812 50.6518 267.915 50.4048 268.123 50.1968C268.331 49.9888 268.579 49.8838 268.865 49.8838H273.975C274.261 49.8838 274.508 49.9878 274.716 50.1968C274.924 50.4048 275.029 50.6518 275.029 50.9378V59.1698L281.896 50.7418C282.026 50.5858 282.196 50.4038 282.404 50.1958C282.612 49.9878 282.962 49.8828 283.457 49.8828H289.543C289.777 49.8828 289.979 49.9678 290.148 50.1368C290.317 50.3058 290.401 50.5068 290.401 50.7408C290.401 50.9238 290.362 51.0658 290.284 51.1708L280.647 62.9528L290.948 75.9078Z" fill="#FAFAFA"/>
<path d="M359.616 93.3221L354.012 95.0101L349.957 81.4841L355.552 79.7971L359.616 93.3221Z" fill="#E0E0E0"/>
<path d="M377.133 81.3091C377.351 82.0351 376.632 83.5981 375.544 83.9271C375.544 83.9271 376.066 84.4791 376.33 85.3591C376.652 86.4061 375.796 87.8141 374.112 88.3161C372.436 88.8181 361.282 92.1771 361.282 92.1771L357.506 79.6141L357.497 79.6131C357.497 79.6131 359.674 74.0561 359.781 73.2201C359.908 72.3971 358.606 69.3011 358.431 68.7191C358.289 68.2451 360.33 67.3831 361.973 68.0451C362.352 68.2001 362.711 68.4301 363.02 68.7691C363.663 69.4731 364.144 70.1631 364.491 70.8761C365.045 71.9771 365.272 73.1231 365.272 74.4231L373.023 72.0911C373.67 71.8971 374.235 71.9531 374.682 72.1431C375.373 72.4281 375.817 73.0211 375.961 73.5001C376.318 74.6331 375.657 75.5031 375.302 75.8411C375.302 75.8411 376.955 75.7051 377.422 77.2651C377.684 78.1391 377.25 79.2951 376.143 79.8641C376.143 79.8641 376.808 80.2241 377.133 81.3091Z" fill="#E0E0E0"/>
<path d="M440.005 233.613L432.815 231.884L437.005 214.543L444.186 216.266L440.005 233.613Z" fill="#E0E0E0"/>
<path d="M466.772 231.662C466.547 232.593 464.768 233.84 463.37 233.506C463.37 233.506 463.588 234.441 463.316 235.569C463.001 236.916 461.17 237.908 459.012 237.383C456.863 236.864 442.552 233.423 442.552 233.423L446.435 217.31L446.426 217.303C446.426 217.303 452.342 212.626 452.99 211.782C453.653 210.965 454.204 206.758 454.385 206.011C454.532 205.403 457.308 205.763 458.679 207.532C458.993 207.942 459.239 208.422 459.36 208.989C459.613 210.167 459.698 211.226 459.622 212.225C459.525 213.78 459.044 215.174 458.215 216.593L468.159 218.986C468.989 219.187 469.57 219.607 469.936 220.1C470.509 220.852 470.615 221.78 470.466 222.396C470.133 223.86 468.858 224.388 468.255 224.531C468.255 224.531 470.145 225.436 469.662 227.435C469.391 228.556 468.182 229.54 466.61 229.456C466.613 229.456 467.108 230.271 466.772 231.662Z" fill="#E0E0E0"/>
<path d="M76.8232 223.236L84.6712 225.599L90.3502 206.659L82.5142 204.297L76.8232 223.236Z" fill="#E0E0E0"/>
<path d="M52.293 206.413C51.988 207.429 52.994 209.618 54.518 210.079C54.518 210.079 53.786 210.852 53.417 212.084C52.966 213.55 54.164 215.523 56.523 216.225C58.87 216.929 74.49 221.632 74.49 221.632L79.777 204.039L79.789 204.038C79.789 204.038 76.74 196.256 76.591 195.085C76.414 193.933 78.237 189.597 78.481 188.782C78.68 188.118 75.822 186.911 73.521 187.838C72.991 188.055 72.488 188.377 72.055 188.852C71.155 189.838 70.481 190.805 69.996 191.803C69.22 193.345 68.902 194.949 68.902 196.77L58.047 193.504C57.14 193.233 56.349 193.31 55.723 193.577C54.755 193.976 54.134 194.806 53.933 195.478C53.434 197.065 54.359 198.283 54.856 198.757C54.856 198.757 52.541 198.567 51.886 200.751C51.519 201.975 52.127 203.593 53.678 204.39C53.678 204.39 52.749 204.894 52.293 206.413Z" fill="#E0E0E0"/>
</svg>
